<?xml version="1.0" standalone="no"?>
<!DOCTYPE svg PUBLIC "-//W3C//DTD SVG 20010904//EN"
 "http://www.w3.org/TR/2001/REC-SVG-20010904/DTD/svg10.dtd">
<svg version="1.0" xmlns="http://www.w3.org/2000/svg"
 width="512.000000pt" height="512.000000pt" viewBox="0 0 512.000000 512.000000"
 preserveAspectRatio="xMidYMid meet">

<g transform="translate(0.000000,512.000000) scale(0.100000,-0.100000)"
fill="#000000" stroke="none">
<path d="M3423 5082 c-71 -25 -113 -60 -148 -123 l-30 -54 0 -420 c0 -412 0
-421 22 -461 53 -99 129 -143 246 -144 89 0 84 7 66 -111 -9 -60 -8 -73 5 -94
32 -49 60 -35 186 90 l117 115 344 0 c341 0 344 0 394 24 61 29 97 65 127 131
23 50 23 53 23 455 0 405 0 405 -23 452 -13 26 -42 64 -64 84 -80 72 -52 69
-663 71 -508 3 -554 1 -602 -15z m1189 -91 c19 -13 46 -40 59 -59 l24 -36 3
-398 c3 -377 2 -400 -17 -435 -24 -48 -56 -78 -103 -98 -31 -12 -93 -15 -380
-15 l-343 0 -95 -95 c-52 -52 -97 -95 -101 -95 -3 0 -2 21 2 48 4 26 8 66 8
89 1 50 0 51 -135 55 -79 3 -96 6 -132 31 -23 15 -52 46 -64 70 -23 41 -23 50
-26 401 -2 232 1 376 8 409 13 64 51 114 104 138 39 18 71 19 597 16 l555 -2
36 -24z"/>
<path d="M3556 4610 c-77 -24 -117 -111 -81 -180 35 -67 120 -92 186 -53 87
51 74 189 -21 227 -45 18 -44 18 -84 6z m80 -95 c21 -33 6 -72 -31 -81 -50
-13 -86 53 -49 90 24 24 61 20 80 -9z"/>
<path d="M3975 4613 c-108 -28 -130 -180 -35 -237 16 -9 49 -16 75 -16 40 0
52 5 80 33 44 44 53 93 29 143 -29 59 -93 91 -149 77z m69 -89 c37 -37 1 -103
-49 -90 -14 4 -31 17 -37 31 -23 52 46 100 86 59z"/>
<path d="M4386 4610 c-101 -31 -123 -169 -37 -227 62 -42 155 -24 186 37 30
58 8 152 -42 178 -30 16 -76 21 -107 12z m79 -90 c41 -46 -29 -116 -75 -75
-24 22 -26 52 -3 77 21 24 55 23 78 -2z"/>
<path d="M2279 4425 c-81 -26 -149 -120 -149 -206 0 -14 7 -46 16 -72 18 -54
88 -122 135 -132 l29 -7 0 -84 c0 -83 0 -84 -27 -90 -40 -9 -104 -48 -137 -83
l-30 -31 -377 0 c-234 0 -398 -4 -431 -11 -86 -18 -210 -83 -279 -147 -110
-101 -171 -218 -193 -366 -11 -75 -13 -80 -41 -89 -48 -15 -91 -53 -114 -100
-20 -41 -21 -59 -21 -331 0 -320 2 -333 71 -391 45 -37 72 -46 158 -54 l73 -6
20 -49 c25 -64 76 -141 133 -198 l46 -47 -27 -85 -26 -86 -42 0 c-67 0 -165
-19 -212 -42 -71 -33 -140 -101 -176 -176 -30 -61 -33 -76 -37 -177 l-3 -110
-43 -26 c-45 -28 -94 -92 -113 -148 -20 -59 -15 -160 12 -216 29 -64 102 -129
168 -151 65 -21 167 -15 223 14 97 50 159 153 158 262 -1 103 -43 181 -128
240 l-45 31 0 67 c0 122 57 192 157 192 l41 0 1 -133 c2 -525 281 -1001 717
-1224 102 -53 251 -103 364 -124 83 -15 305 -15 391 0 533 92 939 500 1061
1066 12 57 21 150 25 252 l6 163 94 0 c157 0 201 -37 210 -178 l6 -78 -52 -37
c-98 -71 -145 -183 -122 -294 45 -227 323 -312 487 -149 60 60 84 121 84 211
0 83 -43 171 -107 220 -25 19 -49 35 -53 35 -4 0 -9 51 -12 113 -4 100 -8 119
-36 178 -36 74 -95 135 -169 172 -65 33 -96 39 -246 46 l-129 6 -29 93 -30 93
50 63 c51 64 102 152 113 194 5 19 13 22 58 22 110 0 190 42 230 121 19 35 20
59 20 325 0 273 -1 290 -21 332 -22 45 -89 102 -119 102 -14 0 -19 12 -24 58
-31 262 -212 474 -461 537 -47 12 -132 15 -427 15 l-367 0 -46 44 c-28 28 -64
51 -95 61 l-50 17 0 82 0 82 35 13 c84 30 137 108 137 201 0 150 -140 251
-283 205z m139 -85 c66 -41 88 -113 54 -180 -75 -149 -289 -72 -258 94 7 35
46 82 81 97 35 14 89 9 123 -11z m-16 -580 c69 -20 138 -101 138 -165 l0 -25
-190 0 -190 0 0 30 c0 58 52 125 120 154 42 18 72 19 122 6z m-316 -132 c-3
-13 -6 -31 -6 -40 0 -17 -21 -18 -298 -18 -337 0 -363 -4 -502 -72 -122 -59
-222 -162 -282 -286 -39 -82 -46 -91 -70 -92 -33 0 -34 6 -14 101 44 204 199
363 406 414 41 10 149 14 414 14 l358 1 -6 -22z m1255 8 c101 -22 184 -69 265
-150 95 -95 154 -221 154 -328 0 -35 -2 -38 -27 -38 -25 1 -32 10 -71 92 -58
120 -158 224 -278 286 -128 66 -168 72 -485 72 l-277 0 -6 23 c-16 61 -38 57
327 57 246 0 349 -4 398 -14z m-139 -151 c204 -43 369 -199 435 -411 16 -52
18 -97 18 -404 0 -336 -1 -347 -23 -410 -71 -198 -218 -337 -407 -385 -89 -23
-1701 -23 -1790 0 -202 52 -366 218 -416 425 -10 41 -14 141 -14 385 0 363 2
381 67 509 43 85 163 202 251 245 124 60 114 59 1002 60 666 1 822 -2 877 -14z
m292 -1667 c46 -154 60 -251 59 -423 0 -180 -20 -297 -74 -452 -90 -254 -268
-497 -465 -633 -103 -71 -260 -144 -379 -175 -134 -36 -337 -45 -474 -21 -493
86 -863 456 -989 989 -23 100 -26 131 -26 297 1 131 5 208 17 262 18 89 56
218 63 218 2 0 31 -13 62 -29 138 -69 83 -66 1047 -66 l870 0 76 27 c42 15 98
40 125 57 27 16 52 30 56 30 4 1 19 -36 32 -81z m-2408 -160 c-3 -13 -6 -30
-6 -39 0 -11 -19 -18 -75 -26 -139 -20 -205 -97 -205 -240 l0 -73 -46 0 -47 0
5 84 c13 197 130 313 317 315 61 1 63 0 57 -21z m2804 5 c69 -22 150 -96 179
-162 12 -30 23 -83 27 -135 l7 -86 -47 0 -46 0 0 73 c0 84 -20 136 -71 184
-48 45 -80 54 -206 60 -103 5 -112 7 -117 27 -15 56 -15 56 108 56 80 0 129
-5 166 -17z"/>
<path d="M1489 3266 c-106 -29 -202 -114 -239 -214 -20 -53 -21 -71 -18 -391
l3 -336 35 -64 c40 -75 104 -130 186 -160 55 -21 64 -21 892 -19 l837 3 63 34
c70 38 119 89 154 160 22 45 23 54 26 382 3 321 2 338 -18 392 -30 79 -102
156 -182 193 l-63 29 -815 2 c-625 1 -826 -1 -861 -11z m1701 -87 c55 -25 114
-80 143 -134 21 -38 22 -54 25 -343 3 -341 -2 -377 -62 -448 -18 -22 -58 -53
-87 -69 l-54 -30 -825 0 -825 0 -53 30 c-59 32 -91 66 -125 129 -21 39 -22 54
-25 339 -3 251 -1 307 13 353 20 69 81 138 150 170 l50 24 815 0 c798 0 816
-1 860 -21z"/>
<path d="M1760 2882 c-56 -30 -80 -88 -80 -197 0 -49 5 -106 10 -126 33 -120
210 -138 264 -26 12 26 16 64 16 150 0 102 -2 118 -23 148 -43 64 -121 85
-187 51z"/>
<path d="M2799 2879 c-60 -35 -69 -61 -69 -199 0 -90 4 -129 15 -151 48 -92
202 -91 250 2 13 25 16 56 13 159 -3 121 -4 130 -28 155 -54 58 -118 70 -181
34z"/>
<path d="M1960 1388 c-75 -39 -80 -58 -80 -308 0 -250 5 -269 80 -307 43 -23
51 -23 389 -23 489 0 466 -16 466 330 0 257 -4 273 -80 310 -39 19 -63 20
-386 20 -338 0 -346 0 -389 -22z m760 -78 c19 -19 20 -33 20 -230 0 -197 -1
-211 -20 -230 -19 -19 -33 -20 -368 -20 -298 0 -351 2 -370 16 -22 15 -22 19
-22 234 0 215 0 219 22 234 19 14 72 16 370 16 335 0 349 -1 368 -20z"/>
</g>
</svg>
